<svg width="96" height="16" viewBox="0 0 96 16" fill="none" xmlns="http://www.w3.org/2000/svg">
<path d="M14.95 6.0875C14.8874 5.89061 14.7668 5.71723 14.604 5.59009C14.4412 5.46294 14.2437 5.38797 14.0375 5.375L10.325 5.11875L8.95002 1.65C8.87494 1.459 8.74425 1.29494 8.57488 1.17905C8.40551 1.06317 8.20525 1.00079 8.00002 1C7.7948 1.00079 7.59454 1.06317 7.42516 1.17905C7.25579 1.29494 7.1251 1.459 7.05002 1.65L5.65002 5.1375L1.96252 5.375C1.75659 5.38881 1.55954 5.4641 1.39686 5.59112C1.23418 5.71814 1.11336 5.89106 1.05002 6.0875C0.984985 6.28695 0.981185 6.50131 1.03911 6.70294C1.09704 6.90458 1.21404 7.08423 1.37502 7.21875L4.21252 9.61875L3.36877 12.9375C3.3104 13.162 3.3209 13.3989 3.39892 13.6174C3.47695 13.8358 3.61888 14.0258 3.80627 14.1625C3.98817 14.293 4.20488 14.3664 4.42867 14.373C4.65247 14.3797 4.87316 14.3195 5.06252 14.2L7.99377 12.3438H8.00627L11.1625 14.3375C11.3244 14.4427 11.5132 14.4991 11.7063 14.5C11.8639 14.4988 12.0192 14.4614 12.1602 14.3908C12.3011 14.3201 12.424 14.2181 12.5194 14.0926C12.6147 13.967 12.68 13.8213 12.7103 13.6666C12.7405 13.5118 12.7349 13.3522 12.6938 13.2L11.8 9.56875L14.625 7.21875C14.786 7.08423 14.903 6.90458 14.9609 6.70294C15.0189 6.50131 15.0151 6.28695 14.95 6.0875Z" fill="#8381D9"/>
<path d="M34.95 6.0875C34.8874 5.89061 34.7668 5.71723 34.604 5.59009C34.4412 5.46294 34.2437 5.38797 34.0375 5.375L30.325 5.11875L28.95 1.65C28.8749 1.459 28.7443 1.29494 28.5749 1.17905C28.4055 1.06317 28.2052 1.00079 28 1C27.7948 1.00079 27.5945 1.06317 27.4252 1.17905C27.2558 1.29494 27.1251 1.459 27.05 1.65L25.65 5.1375L21.9625 5.375C21.7566 5.38881 21.5595 5.4641 21.3969 5.59112C21.2342 5.71814 21.1134 5.89106 21.05 6.0875C20.985 6.28695 20.9812 6.50131 21.0391 6.70294C21.097 6.90458 21.214 7.08423 21.375 7.21875L24.2125 9.61875L23.3688 12.9375C23.3104 13.162 23.3209 13.3989 23.3989 13.6174C23.4769 13.8358 23.6189 14.0258 23.8063 14.1625C23.9882 14.293 24.2049 14.3664 24.4287 14.373C24.6525 14.3797 24.8732 14.3195 25.0625 14.2L27.9938 12.3438H28.0063L31.1625 14.3375C31.3244 14.4427 31.5132 14.4991 31.7063 14.5C31.8639 14.4988 32.0192 14.4614 32.1602 14.3908C32.3011 14.3201 32.424 14.2181 32.5194 14.0926C32.6147 13.967 32.68 13.8213 32.7103 13.6666C32.7405 13.5118 32.7349 13.3522 32.6938 13.2L31.8 9.56875L34.625 7.21875C34.786 7.08423 34.903 6.90458 34.9609 6.70294C35.0189 6.50131 35.0151 6.28695 34.95 6.0875Z" fill="#8381D9"/>
<path d="M54.95 6.0875C54.8874 5.89061 54.7668 5.71723 54.604 5.59009C54.4412 5.46294 54.2437 5.38797 54.0375 5.375L50.325 5.11875L48.95 1.65C48.8749 1.459 48.7443 1.29494 48.5749 1.17905C48.4055 1.06317 48.2052 1.00079 48 1C47.7948 1.00079 47.5945 1.06317 47.4252 1.17905C47.2558 1.29494 47.1251 1.459 47.05 1.65L45.65 5.1375L41.9625 5.375C41.7566 5.38881 41.5595 5.4641 41.3969 5.59112C41.2342 5.71814 41.1134 5.89106 41.05 6.0875C40.985 6.28695 40.9812 6.50131 41.0391 6.70294C41.097 6.90458 41.214 7.08423 41.375 7.21875L44.2125 9.61875L43.3688 12.9375C43.3104 13.162 43.3209 13.3989 43.3989 13.6174C43.4769 13.8358 43.6189 14.0258 43.8063 14.1625C43.9882 14.293 44.2049 14.3664 44.4287 14.373C44.6525 14.3797 44.8732 14.3195 45.0625 14.2L47.9938 12.3438H48.0063L51.1625 14.3375C51.3244 14.4427 51.5132 14.4991 51.7063 14.5C51.8639 14.4988 52.0192 14.4614 52.1602 14.3908C52.3011 14.3201 52.424 14.2181 52.5194 14.0926C52.6147 13.967 52.68 13.8213 52.7103 13.6666C52.7405 13.5118 52.7349 13.3522 52.6938 13.2L51.8 9.56875L54.625 7.21875C54.786 7.08423 54.903 6.90458 54.9609 6.70294C55.0189 6.50131 55.0151 6.28695 54.95 6.0875Z" fill="#8381D9"/>
<path d="M74.95 6.0875C74.8874 5.89061 74.7668 5.71723 74.604 5.59009C74.4412 5.46294 74.2437 5.38797 74.0375 5.375L70.325 5.11875L68.95 1.65C68.8749 1.459 68.7443 1.29494 68.5749 1.17905C68.4055 1.06317 68.2052 1.00079 68 1C67.7948 1.00079 67.5945 1.06317 67.4252 1.17905C67.2558 1.29494 67.1251 1.459 67.05 1.65L65.65 5.1375L61.9625 5.375C61.7566 5.38881 61.5595 5.4641 61.3969 5.59112C61.2342 5.71814 61.1134 5.89106 61.05 6.0875C60.985 6.28695 60.9812 6.50131 61.0391 6.70294C61.097 6.90458 61.214 7.08423 61.375 7.21875L64.2125 9.61875L63.3688 12.9375C63.3104 13.162 63.3209 13.3989 63.3989 13.6174C63.4769 13.8358 63.6189 14.0258 63.8063 14.1625C63.9882 14.293 64.2049 14.3664 64.4287 14.373C64.6525 14.3797 64.8732 14.3195 65.0625 14.2L67.9938 12.3438H68.0063L71.1625 14.3375C71.3244 14.4427 71.5132 14.4991 71.7063 14.5C71.8639 14.4988 72.0192 14.4614 72.1602 14.3908C72.3011 14.3201 72.424 14.2181 72.5194 14.0926C72.6147 13.967 72.68 13.8213 72.7103 13.6666C72.7405 13.5118 72.7349 13.3522 72.6938 13.2L71.8 9.56875L74.625 7.21875C74.786 7.08423 74.903 6.90458 74.9609 6.70294C75.0189 6.50131 75.0151 6.28695 74.95 6.0875Z" fill="#8381D9"/>
<path fill-rule="evenodd" clip-rule="evenodd" d="M87.4155 1.18039C87.5868 1.06044 87.7909 0.996094 88 0.996094C88.2091 0.996094 88.4131 1.06044 88.5844 1.18039C88.7533 1.29871 88.8823 1.4655 88.9544 1.65862L90.3272 5.11548L90.3313 5.12616C90.3325 5.12958 90.3348 5.13255 90.3377 5.13472C90.3406 5.13688 90.3441 5.13815 90.3477 5.13836L90.3508 5.13854L94.0383 5.37605C94.9956 5.43821 95.3227 6.63646 94.626 7.21559C94.6259 7.21569 94.6258 7.2158 94.6257 7.21591L91.8015 9.57149L91.7998 9.57285C91.7935 9.5781 91.7887 9.58504 91.7861 9.59287C91.7836 9.6005 91.7833 9.60866 91.7851 9.61647C91.7851 9.61668 91.7852 9.61689 91.7852 9.6171L92.697 13.2018C92.9178 14.0732 91.9768 14.858 91.1582 14.3417L91.1569 14.3409L88.0069 12.3409C88.0049 12.3396 88.0023 12.3387 88 12.3387C87.9976 12.3387 87.9952 12.3394 87.9932 12.3407L87.9925 12.3412L85.0621 14.1968C85.062 14.1969 85.0618 14.197 85.0617 14.1971C84.1637 14.7681 83.1265 13.9001 83.3717 12.9392C83.3717 12.939 83.3716 12.9393 83.3717 12.9392L84.2147 9.6171C84.2147 9.61691 84.2148 9.61672 84.2148 9.61653C84.2166 9.6087 84.2163 9.60052 84.2138 9.59287C84.2112 9.58504 84.2064 9.5781 84.2001 9.57285L84.1984 9.57149L81.3743 7.21591C81.3741 7.2158 81.374 7.21569 81.3738 7.21558C80.6772 6.63644 81.0041 5.43822 81.9613 5.37607L85.6522 5.13835C85.6558 5.13814 85.6593 5.13688 85.6622 5.13472C85.6652 5.13255 85.6674 5.12958 85.6687 5.12616L85.6728 5.11548L87.0455 1.65862C87.1176 1.4655 87.2466 1.29872 87.4155 1.18039ZM88 1.99609C87.9961 1.99609 87.9923 1.99728 87.9892 1.99949C87.986 2.00169 87.9836 2.00482 87.9823 2.00843C87.9807 2.013 87.9789 2.01754 87.9772 2.02205L86.6039 5.48014C86.5347 5.66308 86.4142 5.82228 86.2569 5.93866C86.0983 6.05602 85.909 6.12476 85.712 6.13657L82.0261 6.37396C82.026 6.37397 82.0262 6.37396 82.0261 6.37396C82.0188 6.37445 82.0158 6.3757 82.0158 6.37573C82.0155 6.37582 82.0153 6.37588 82.0147 6.37642C82.0129 6.37795 82.0067 6.38446 82.0026 6.39786C81.9984 6.41129 81.9991 6.42292 82.0008 6.42966C82.0016 6.43263 82.0026 6.43477 82.0038 6.43661C82.0048 6.43828 82.0073 6.44176 82.0132 6.44662L82.014 6.44729L84.8373 8.80218C84.8376 8.80245 84.838 8.80272 84.8383 8.80299C84.9894 8.92822 85.1021 9.0935 85.1635 9.27989C85.2251 9.46667 85.2326 9.66705 85.1852 9.85793L85.1846 9.8605L84.3406 13.1863C84.3226 13.257 84.3475 13.3118 84.3932 13.3465C84.4165 13.3643 84.4401 13.3719 84.4588 13.3732C84.4742 13.3743 84.4956 13.3721 84.5253 13.3532L87.4567 11.4968C87.4569 11.4967 87.4572 11.4965 87.4574 11.4963C87.6197 11.3934 87.8078 11.3387 88 11.3387C88.1923 11.3387 88.3806 11.3935 88.543 11.4967C88.5431 11.4967 88.5429 11.4966 88.543 11.4967L91.6917 13.4959C91.6918 13.4959 91.6916 13.4958 91.6917 13.4959C91.6974 13.4994 91.7011 13.5008 91.7021 13.5011C91.7035 13.5008 91.7078 13.4997 91.7137 13.4952C91.7213 13.4894 91.7261 13.4823 91.7283 13.4764C91.7293 13.4738 91.73 13.4709 91.7302 13.4674C91.7304 13.464 91.7303 13.4577 91.7278 13.4479C91.7278 13.4479 91.7278 13.4479 91.7278 13.4479L90.8147 9.85793C90.7673 9.66705 90.7748 9.46667 90.8364 9.27989C90.8978 9.09347 91.0106 8.92816 91.1617 8.80293C91.162 8.80268 91.1623 8.80243 91.1626 8.80218L93.9868 6.44662C93.9926 6.44176 93.9951 6.43828 93.9961 6.43661C93.9973 6.43477 93.9983 6.43263 93.9991 6.42966C94.0008 6.42292 94.0015 6.41129 93.9973 6.39786C93.9932 6.38446 93.987 6.37795 93.9852 6.37642C93.9846 6.37591 93.9844 6.37583 93.9842 6.37574C93.9841 6.37572 93.9812 6.37446 93.974 6.37398C93.9739 6.37397 93.974 6.37398 93.974 6.37398L90.2897 6.13667C90.2891 6.13664 90.2885 6.1366 90.2879 6.13657C90.0909 6.12476 89.9016 6.05602 89.743 5.93866C89.5857 5.82228 89.4652 5.66308 89.396 5.48014L88.0228 2.02205C88.021 2.01754 88.0192 2.013 88.0176 2.00843C88.0163 2.00482 88.0139 2.00169 88.0107 1.99949C88.0076 1.99728 88.0038 1.99609 88 1.99609Z" fill="#8381D9"/>
</svg>
